<svg viewBox="0 0 60 60" xmlns="http://www.w3.org/2000/svg"><g stroke="#dbdbdb" stroke-width="2" fill="none" fill-rule="evenodd" class="stroke-000000"><path d="M37.737 30.046c0-4.237-3.442-7.675-7.692-7.675-4.245 0-7.69 3.438-7.69 7.675s3.445 7.675 7.69 7.675c4.25 0 7.692-3.438 7.692-7.675ZM45.002 20v-3.75c0-.691-.563-1.25-1.25-1.25H40c-.692 0-1.25.559-1.25 1.25V20c0 .688.558 1.25 1.25 1.25h3.75c.687 0 1.25-.562 1.25-1.25Zm1.25 25V26.25h-5c.808.963.962 2.683.962 3.796 0 6.692-5.459 12.137-12.168 12.137-6.708 0-12.166-5.445-12.166-12.137 0-1.113.221-2.862.871-3.796h-5V45c0 .688.559 1.25 1.25 1.25h30c.688 0 1.25-.562 1.25-1.25ZM50 14.742v30.512A4.751 4.751 0 0 1 45.245 50H14.753a4.75 4.75 0 0 1-4.753-4.746V14.742A4.747 4.747 0 0 1 14.755 10h30.49a4.748 4.748 0 0 1 4.756 4.742Z"></path><path d="M55 59H5a4 4 0 0 1-4-4V5a4 4 0 0 1 4-4h50a4 4 0 0 1 4 4v50a4 4 0 0 1-4 4Z" stroke-linejoin="round"></path></g></svg>